<!DOCTYPE svg PUBLIC "-//W3C//DTD SVG 20010904//EN" "http://www.w3.org/TR/2001/REC-SVG-20010904/DTD/svg10.dtd">
<svg version="1.0" xmlns="http://www.w3.org/2000/svg" width="72px" height="72px" viewBox="0 0 720 720" preserveAspectRatio="xMidYMid meet">
<g id="layer101" fill="#8349da" stroke="none">
 <path d="M239 705 c-94 -34 -172 -105 -214 -193 -21 -45 -25 -67 -25 -152 0 -86 3 -107 26 -154 34 -72 98 -136 177 -174 58 -29 73 -32 156 -32 79 0 100 4 149 27 72 34 151 112 184 183 23 47 26 68 26 150 0 81 -4 103 -26 150 -34 71 -112 149 -184 183 -49 23 -69 27 -145 26 -48 0 -104 -6 -124 -14z m252 -88 c58 -31 94 -68 126 -126 22 -39 26 -60 26 -132 1 -76 -3 -91 -27 -132 -35 -60 -68 -93 -125 -124 -39 -21 -60 -25 -131 -26 -119 0 -186 35 -248 132 -35 54 -36 59 -36 151 0 92 1 97 36 152 62 96 146 138 263 133 51 -2 82 -10 116 -28z"/>
 <path d="M231 470 c-11 -39 -12 -39 -69 -42 -54 -3 -57 -4 -60 -30 -3 -27 -2 -28 42 -28 25 0 46 -4 46 -10 0 -5 -21 -10 -46 -10 -44 0 -45 -1 -42 -27 2 -23 9 -29 34 -31 27 -3 30 -6 26 -28 -4 -23 -2 -24 46 -24 l51 0 6 38 c11 67 16 84 22 78 10 -10 33 -79 33 -98 0 -14 9 -18 38 -18 l38 0 14 61 c12 56 15 60 27 44 7 -11 13 -31 13 -46 0 -51 8 -59 62 -59 41 0 49 3 44 15 -3 8 -9 22 -12 30 -5 12 0 14 26 9 34 -7 50 5 50 39 0 14 -9 17 -50 17 -27 0 -50 5 -50 10 0 6 23 10 50 10 41 0 50 3 50 18 0 31 -15 41 -69 44 -52 3 -55 4 -66 38 -10 31 -16 35 -52 38 -39 3 -40 2 -52 -40 -7 -24 -17 -52 -21 -63 -8 -19 -9 -19 -11 3 -2 32 -3 34 -18 70 -12 28 -18 32 -51 32 -34 0 -38 -3 -49 -40z"/>
 </g>
<g id="layer102" fill="#b752ee" stroke="none">
 <path d="M680 307 c-14 -12 -34 -42 -45 -67 -36 -82 -112 -146 -204 -175 -13 -4 -36 -20 -51 -35 l-27 -28 41 6 c145 18 272 128 307 265 6 26 10 49 8 52 -2 2 -15 -6 -29 -18z"/>
 </g>

</svg>